<?xml version="1.0" standalone="no"?>
<!DOCTYPE svg PUBLIC "-//W3C//DTD SVG 20010904//EN"
 "http://www.w3.org/TR/2001/REC-SVG-20010904/DTD/svg10.dtd">
<svg version="1.0" xmlns="http://www.w3.org/2000/svg"
 width="300.000000pt" height="300.000000pt" viewBox="0 0 300.000000 300.000000"
 preserveAspectRatio="xMidYMid meet">
<metadata>
Created by potrace 1.14, written by Peter Selinger 2001-2017
</metadata>
<g transform="translate(0.000000,300.000000) scale(0.100000,-0.100000)"
fill="#000000" stroke="none">
<path d="M1330 2869 c0 -3 -12 -5 -27 -4 -16 1 -44 -2 -64 -7 -20 -4 -52 -9
-72 -12 -20 -2 -42 -8 -49 -12 -7 -4 -23 -9 -37 -10 -13 -2 -27 -7 -30 -12 -3
-5 -16 -8 -28 -7 -13 1 -23 -2 -23 -6 0 -4 -21 -15 -47 -25 -27 -10 -53 -21
-59 -26 -6 -4 -14 -5 -17 -1 -4 3 -7 1 -7 -5 0 -7 -6 -12 -14 -12 -7 0 -19 -7
-26 -15 -7 -8 -16 -12 -21 -9 -5 3 -9 0 -9 -5 0 -6 -7 -11 -15 -11 -8 0 -15
-5 -15 -11 0 -5 -4 -8 -9 -5 -5 4 -11 2 -13 -2 -1 -5 -28 -27 -59 -50 -104
-76 -213 -200 -279 -317 -41 -72 -50 -90 -50 -102 0 -7 -4 -13 -8 -13 -5 0 -9
-6 -9 -12 -1 -7 -11 -42 -22 -78 -23 -68 -35 -126 -36 -172 0 -16 -3 -28 -6
-28 -3 0 -6 -52 -7 -115 -1 -88 2 -114 11 -108 9 5 9 3 2 -8 -12 -16 -11 -41
5 -113 5 -26 8 -52 5 -56 -3 -5 -1 -10 4 -12 6 -1 11 -14 13 -28 2 -14 6 -29
9 -35 4 -5 9 -23 13 -39 8 -34 65 -158 75 -166 10 -7 25 -43 22 -53 -1 -5 2
-6 7 -3 5 3 15 -7 23 -22 16 -32 34 -54 109 -131 66 -69 189 -166 204 -162 4
1 13 -4 21 -11 34 -31 43 -36 49 -31 3 4 14 -1 23 -9 23 -19 82 -48 100 -48 7
0 13 -4 13 -10 0 -5 8 -10 18 -10 10 0 22 -4 27 -8 6 -5 35 -14 65 -21 30 -8
60 -16 65 -20 11 -6 21 -8 81 -15 57 -7 70 -13 117 -58 23 -22 71 -65 107 -96
36 -32 69 -63 73 -70 4 -6 15 -12 22 -12 8 0 15 -5 15 -10 0 -6 8 -14 18 -17
9 -4 25 -15 35 -26 9 -11 17 -16 17 -11 0 5 4 4 8 -2 6 -9 130 -87 142 -90 3
0 16 -5 30 -11 53 -23 106 -42 135 -48 16 -4 33 -12 37 -18 6 -9 8 -8 8 1 0 7
5 10 11 6 20 -12 89 -18 199 -17 123 0 170 4 176 15 3 4 16 8 29 8 36 0 152
46 210 83 27 18 53 31 58 29 5 -1 6 2 2 8 -3 5 -2 10 2 10 21 0 113 85 113
104 0 6 -5 17 -12 24 -7 7 -8 12 -3 12 6 0 -3 9 -20 20 -16 11 -27 20 -23 20
3 0 -8 15 -25 33 -48 50 -82 91 -87 102 -4 12 -45 45 -55 45 -3 0 -3 -4 0 -10
3 -5 2 -10 -3 -10 -5 0 -20 -10 -34 -22 -58 -52 -64 -56 -98 -65 -11 -3 -20
-9 -20 -14 0 -5 -7 -6 -15 -3 -8 4 -15 2 -15 -3 0 -5 -6 -10 -12 -10 -7 0 -26
-4 -43 -8 -48 -12 -217 -8 -225 5 -4 7 -10 11 -14 10 -15 -3 -93 41 -131 75
-22 19 -43 35 -47 35 -5 0 -8 5 -8 10 0 13 61 41 72 34 5 -3 8 0 8 5 0 6 6 11
13 11 6 1 30 9 52 20 22 11 45 19 52 20 6 0 13 5 15 11 2 5 11 11 20 13 9 1
25 9 35 17 10 8 35 26 55 40 21 13 38 27 38 32 0 4 4 7 10 7 11 0 164 152 195
194 11 14 26 33 33 41 6 7 12 18 12 24 0 6 5 11 11 11 5 0 8 4 5 9 -3 5 1 12
10 15 8 3 12 10 9 16 -3 5 -2 10 4 10 9 0 21 26 20 44 0 5 4 12 11 16 6 4 12
13 14 21 1 8 7 24 14 36 7 12 13 31 15 42 2 11 6 24 10 27 4 4 7 18 7 31 0 13
5 23 11 23 5 0 8 4 5 8 -3 4 0 26 5 48 5 21 12 50 16 64 10 41 7 348 -3 362
-6 7 -11 26 -12 42 -2 23 -12 66 -27 116 -6 19 -18 48 -26 62 -5 10 -9 25 -9
33 0 8 -4 15 -10 15 -5 0 -10 6 -10 14 0 13 -35 87 -52 111 -141 192 -266 312
-390 371 -21 10 -38 21 -38 26 0 4 -7 8 -16 8 -9 0 -32 9 -50 21 -19 11 -34
17 -34 14 0 -4 -6 -2 -14 4 -8 7 -22 13 -32 16 -11 2 -38 10 -61 19 -24 8 -43
13 -43 10 0 -2 -9 0 -19 6 -11 5 -37 12 -58 16 -21 3 -46 7 -56 10 -51 15
-397 26 -397 13z m235 -406 c16 -1 46 -5 65 -9 19 -4 41 -6 48 -5 6 1 12 -3
12 -9 0 -5 3 -9 8 -9 17 3 72 -14 72 -23 0 -5 5 -6 10 -3 6 3 10 1 10 -5 0 -6
4 -9 9 -5 5 3 15 0 23 -7 7 -7 27 -20 43 -28 36 -18 48 -27 86 -63 16 -15 29
-24 29 -20 0 4 8 -4 18 -20 10 -15 22 -24 25 -20 4 3 7 1 7 -6 0 -12 9 -24 42
-61 9 -10 14 -21 11 -24 -4 -3 -1 -6 6 -6 7 0 9 -5 6 -10 -3 -6 1 -13 9 -16 9
-3 13 -10 10 -15 -3 -5 0 -9 6 -9 6 0 8 -4 5 -10 -3 -5 -1 -10 5 -10 6 0 9 -4
5 -9 -3 -5 0 -13 6 -16 5 -4 8 -13 5 -21 -3 -8 -1 -14 4 -14 6 0 9 -3 9 -7 -1
-5 0 -10 1 -13 1 -3 3 -12 5 -20 2 -8 6 -28 10 -45 4 -16 8 -45 9 -62 0 -18 5
-33 9 -33 5 0 5 -5 1 -11 -4 -7 -7 -42 -7 -78 1 -62 -12 -157 -25 -191 -3 -8
-6 -18 -7 -22 -2 -5 -4 -10 -5 -13 -1 -3 -3 -8 -4 -12 -7 -29 -31 -83 -38 -83
-4 0 -8 -6 -8 -13 0 -7 -9 -23 -19 -34 -11 -12 -18 -23 -16 -25 2 -2 -15 -25
-39 -50 -24 -26 -41 -50 -38 -53 3 -3 1 -5 -4 -5 -5 0 -36 -20 -69 -44 -32
-25 -63 -42 -67 -40 -4 3 -8 0 -8 -6 0 -11 -58 -36 -72 -32 -5 1 -8 -2 -8 -7
0 -7 -55 -24 -63 -19 -1 1 -11 -3 -22 -9 -36 -20 -164 -28 -285 -19 -90 7
-118 12 -134 26 -7 5 -15 7 -19 4 -3 -3 -16 0 -29 7 -12 7 -26 12 -30 11 -5
-1 -8 3 -8 8 0 6 -9 10 -20 10 -11 0 -20 5 -20 10 0 6 -6 10 -12 10 -15 0 -55
30 -104 76 -18 18 -35 29 -38 26 -3 -3 -6 1 -6 9 0 8 -16 29 -35 48 -19 18
-32 37 -29 42 3 5 1 9 -4 9 -5 0 -22 25 -38 55 -16 30 -32 55 -36 55 -3 0 -4
10 0 22 3 12 1 19 -4 15 -9 -5 -24 45 -39 131 -2 12 -6 26 -10 31 -3 5 -1 12
5 16 6 4 7 11 4 17 -9 13 -11 158 -4 158 3 0 7 16 8 37 2 20 5 40 8 45 3 4 7
16 9 25 2 10 8 32 14 50 5 17 6 35 3 39 -4 4 -2 4 4 1 6 -3 19 14 31 41 12 26
29 57 39 69 45 51 54 63 49 63 -3 0 17 20 45 45 59 52 154 115 175 115 8 0 15
4 15 9 0 13 130 53 178 55 12 1 22 4 22 7 0 3 27 5 61 5 33 -1 63 2 66 6 2 5
10 5 16 1 7 -4 25 -8 42 -10z"/>
</g>
</svg>
